<?xml version="1.0" encoding="utf-8"?>
<!-- Generator: Adobe Illustrator 25.2.1, SVG Export Plug-In . SVG Version: 6.00 Build 0)  -->
<svg version="1.1" id="Capa_1" xmlns="http://www.w3.org/2000/svg" xmlns:xlink="http://www.w3.org/1999/xlink" x="0px" y="0px"
	 viewBox="0 0 398 280" xml:space="preserve">
<g>
	<path d="M373.91,217.11c-0.38-1.2-0.77-2.37-1.12-3.56c-11.2-37.14-22.42-74.27-33.57-111.43c-1.34-4.46-2.63-8.74-8.06-9.36
		c0-0.83-0.01-1.21,0-1.58c0.65-22.03-12.03-38.44-33.42-43.5c-1.19-0.28-2.54-1.8-2.98-3.04C285.11,18,255.22,7.25,230.91,21.87
		c-1.81,1.09-2.91,0.99-4.63-0.1c-28.17-17.89-62.71-12.45-84.43,13.11c-0.91,1.08-2.6,1.97-4,2.09c-16.7,1.4-28.8,9.55-36.59,24.33
		c-0.61,1.16-1.92,2.35-3.15,2.73c-13.95,4.21-23.65,12.97-29.06,26.52c-0.36,0.89-1.25,2.1-2.02,2.21
		c-4.74,0.65-6.55,3.76-7.79,7.94c-7.33,24.63-14.8,49.21-22.23,73.81c-4.28,14.2-8.56,28.39-12.9,42.78c-2.4,0-4.66,0.18-6.88-0.04
		c-4.6-0.45-8,1.22-10.24,5.26c0,13.75,0,27.5,0,41.25c2.24,3.26,5.09,5.05,9.28,5.05c48.99-0.08,97.98-0.04,146.97-0.06
		c5.81,0,9.3-2.89,9.36-7.48c0.06-4.62-3.41-7.44-9.22-7.5c-0.87-0.01-1.75,0-2.62,0c-44.61,0-89.23,0-133.84,0
		c-1.57,0-3.14,0-4.6,0c0-7.51,0-14.43,0-21.27c117.99,0,235.67,0,353.44,0c0,7.12,0,14.03,0,21.27c-1.72,0-3.2,0-4.68,0
		c-44.86,0-89.73,0-134.59,0c-1.5,0-3.01-0.05-4.49,0.11c-3.67,0.41-6.42,3.4-6.59,7.01c-0.16,3.42,2.17,6.64,5.64,7.42
		c1.68,0.38,3.47,0.43,5.21,0.43c47.99,0.02,95.98-0.02,143.97,0.08c4.59,0.01,8.28-1.05,10.78-5.06c0-13.75,0-27.5,0-41.25
		C387.19,215,380,217.95,373.91,217.11z M105.39,77.88c4.21-0.65,6.7-2.64,8.11-6.62C118,58.58,128.68,51.4,142.05,52.1
		c4.05,0.21,6.82-1.2,9.17-4.5c16.98-23.89,48.2-28.3,71.17-10.16c5.29,4.18,7.69,4.05,13.14-0.43c8.43-6.93,17.98-8.62,28.11-4.87
		c10.01,3.71,15.99,11.2,17.89,21.78c1.08,6,3.15,7.89,9.21,8.12c16.01,0.62,27.57,14.56,25.04,30.52c-76.82,0-153.68,0-231.19,0
		C89.51,84.04,96.36,79.26,105.39,77.88z M39.87,217.11c3.36-11.21,6.64-22.19,9.94-33.15c7.26-24.13,14.59-48.23,21.74-72.39
		c0.86-2.89,2.07-3.81,5.15-3.81c81.6,0.1,163.19,0.08,244.79,0.06c2.23,0,3.82,0.03,4.66,2.87c10.43,35.02,21.03,70,31.58,104.99
		c0.1,0.35,0.09,0.73,0.16,1.44C251.83,217.11,146.03,217.11,39.87,217.11z"/>
	<path d="M199.31,253.78c-4.24-0.09-7.76,3.34-7.68,7.5c0.08,4.05,3.44,7.34,7.5,7.34c4.1,0,7.36-3.23,7.42-7.35
		C206.6,257.14,203.45,253.87,199.31,253.78z"/>
	<path d="M263.12,126.04c-12.71-6.38-27.86-1.39-34.49,11.54c-1.1,2.15-2.32,2.73-4.59,2.72c-16.37-0.09-32.74-0.11-49.1,0.01
		c-2.92,0.02-4.54-0.7-6.02-3.51c-6.52-12.38-21.76-17-34.17-10.69c-12.4,6.3-17.62,21.35-11.6,33.91c1.06,2.21,1.14,3.86,0.04,6.13
		c-5.94,12.29-1.1,27.05,10.81,33.6c11.8,6.49,27.04,2.99,33.81-8.69c2.7-4.65,5.64-5.83,10.27-5.22c0.49,0.07,1,0.01,1.5,0.01
		c15.86,0,31.72,0,47.5,0c0.42,0.74,0.74,1.28,1.02,1.83c6.82,13.59,21.62,19,34.69,12.67c13.2-6.39,18.07-21.44,11.6-35.41
		c-0.5-1.08-0.34-2.85,0.19-3.98C280.88,147.7,275.94,132.47,263.12,126.04z M261.07,182.21c-2.12,3.95-6.73,6.31-10.96,5.63
		c-4.63-0.74-8.14-4.12-9.09-8.77c-1.33-6.45-3.41-8.21-9.88-8.22c-21.48-0.01-42.97-0.02-64.45,0c-6.25,0.01-8.46,1.88-9.69,8.02
		c-0.97,4.88-4.52,8.31-9.29,8.99c-4.25,0.61-8.82-1.84-10.87-5.81c-2.1-4.06-1.36-8.86,1.92-12.48c4.6-5.08,4.61-7.88,0.04-12.88
		c-3.2-3.51-4.05-8.1-2.12-12.12c1.98-4.1,5.33-6.12,8.76-6.2c6.36,0.06,10.49,3.59,11.56,8.95c1.26,6.28,3.2,7.9,9.68,7.9
		c21.48,0.01,42.97,0.01,64.45,0c6.74,0,8.55-1.51,9.9-8.09c0.93-4.54,4.43-8,8.75-8.66c4.59-0.7,8.9,1.32,11.14,5.23
		c2.29,3.99,1.77,8.96-1.32,12.55c-5.11,5.93-5.1,7.71,0.02,13.7C262.61,173.48,263.18,178.28,261.07,182.21z"/>
</g>
</svg>
